Coordinates
version=1
nRows=7
nColumns=40
inDegrees=yes

Units are S.I. units (second, meters, Newtons, ...)
If the header above contains a line with 'inDegrees', this indicates whether rotational values are in degrees (yes) or radians (no).

endheader
time	pelvis_tilt	pelvis_list	pelvis_rotation	pelvis_tx	pelvis_ty	pelvis_tz	hip_flexion_r	hip_adduction_r	hip_rotation_r	knee_angle_r	knee_angle_r_beta	ankle_angle_r	subtalar_angle_r	mtp_angle_r	hip_flexion_l	hip_adduction_l	hip_rotation_l	knee_angle_l	knee_angle_l_beta	ankle_angle_l	subtalar_angle_l	mtp_angle_l	lumbar_extension	lumbar_bending	lumbar_rotation	arm_flex_r	arm_add_r	arm_rot_r	elbow_flex_r	pro_sup_r	wrist_flex_r	wrist_dev_r	arm_flex_l	arm_add_l	arm_rot_l	elbow_flex_l	pro_sup_l	wrist_flex_l	wrist_dev_l
      0.33000000	    -10.20989707	      1.15630072	     -3.11022129	     -0.79734412	      0.94580037	      0.27088267	     30.58048016	     -3.49479672	     -3.22737173	     56.62106685	      0.98822404	      6.38925672	      0.00000000	      0.00000000	     15.34417001	      3.25446663	     -0.83205905	     13.12925766	      0.22914877	      7.18602716	      0.00000000	      0.00000000	     -0.73028147	     -5.86857378	      4.02689716	     -8.84944923	     -6.41017455	     -1.74972416	     46.23378597	     89.30801423	     13.94932541	     26.78343356	     -4.13754938	     -4.80458677	     -8.24033794	     39.32820520	     89.47031832	    -22.08192629	      2.44740955
      0.34000000	     -9.74113002	      0.51039554	     -2.50839440	     -0.78520515	      0.94749949	      0.26891452	     30.83033857	     -2.86339141	     -4.21940282	     54.06139368	      0.94354932	      6.14226996	      0.00000000	      0.00000000	     13.60923320	      2.92801577	      0.05809708	     12.20001308	      0.21293040	      7.48299113	      0.00000000	      0.00000000	     -1.45381266	     -5.09122279	      3.78646839	     -9.52447652	     -6.41502759	     -2.84429717	     46.57491774	     89.29426312	     13.22545292	     25.43999013	     -2.55885271	     -4.98654413	     -7.16677896	     39.98724812	     89.47165528	    -21.69295043	      2.49199582
      0.35000000	     -9.91979770	      0.39544007	     -2.38400187	     -0.77328493	      0.94764485	      0.26795885	     31.90184223	     -2.36853209	     -4.38898946	     51.50305326	      0.89889785	      5.98901287	      0.00000000	      0.00000000	     12.52648154	      2.95515197	      0.40108471	     11.13655927	      0.19436963	      7.57142034	      0.00000000	      0.00000000	     -1.32109121	     -4.88049611	      3.56330713	     -9.85843715	     -6.37121995	     -3.50568368	     46.57846306	     89.27734289	     12.89822382	     25.01544111	     -1.45092104	     -5.17359740	     -6.71775350	     40.97557700	     89.47367345	    -21.60085653	      2.40321976
      0.36000000	     -9.46910562	     -0.12765837	     -1.84840961	     -0.76113412	      0.94861370	      0.26629534	     31.97833280	     -1.76331165	     -5.19670677	     48.38389653	      0.84445830	      5.59239688	      0.00000000	      0.00000000	     10.85455303	      2.66406876	      1.20242359	     10.28396730	      0.17948909	      7.96655273	      0.00000000	      0.00000000	     -1.97471628	     -4.23032378	      3.58121628	    -10.60614493	     -6.28394461	     -4.77094989	     46.95512392	     89.26372947	     11.99487858	     23.49335604	      0.23423870	     -5.37783199	     -5.32513877	     41.54246350	     89.47402157	    -21.25956697	      2.56915281
      0.37000000	     -9.44944817	     -0.29650078	     -1.65260929	     -0.74914948	      0.94840734	      0.26533941	     32.55720789	     -1.22875483	     -5.38323754	     45.18654457	      0.78865398	      5.26217752	      0.00000000	      0.00000000	      9.64828853	      2.62152172	      1.54909158	      9.42319864	      0.16446584	      8.21224416	      0.00000000	      0.00000000	     -2.03921039	     -3.95889873	      4.08400575	    -11.44711480	     -6.09187398	     -6.10978960	     47.28180363	     89.25250757	     10.66291459	     22.02978702	      1.99147711	     -5.57012042	     -3.69376420	     41.88301123	     89.47224703	    -21.14860192	      2.58472326
      0.38000000	     -9.66402010	     -0.37770235	     -1.39168300	     -0.73709267	      0.94753523	      0.26451258	     33.26736809	     -0.74734772	     -5.42405500	     41.75617344	      0.72878271	      4.91331358	      0.00000000	      0.00000000	      8.73392693	      2.64898872	      1.93888673	      8.65970625	      0.15114039	      8.45887063	      0.00000000	      0.00000000	     -1.82255706	     -3.83177260	      3.70834995	    -11.66711409	     -6.00900683	     -6.64872204	     47.15559211	     89.23686222	     10.54437065	     21.81490502	      2.99521414	     -5.78890979	     -3.26902691	     42.97898030	     89.47172917	    -21.09020409	      2.48529090
      0.39000000	     -9.34072543	     -0.69957057	     -0.92266223	     -0.72512063	      0.94731694	      0.26339086	     33.17547872	     -0.19943408	     -5.86471061	     37.88233876	      0.66117154	      4.38490496	      0.00000000	      0.00000000	      7.35284082	      2.45626162	      2.59596968	      8.10570870	      0.14147131	      8.96879234	      0.00000000	      0.00000000	     -2.32579927	     -3.44263069	      3.48576697	    -12.05096475	     -5.88475188	     -7.54148127	     47.33985392	     89.22673004	     10.21827365	     20.94485128	      4.42899477	     -5.98803469	     -2.31089757	     43.75115582	     89.47320320	    -20.84177286	      2.66059870
